<?xml version="1.0" encoding="utf-8"?>
<svg viewBox="0 0 500 500" xmlns="http://www.w3.org/2000/svg" xmlns:bx="https://boxy-svg.com">
  <rect x="888.686" y="665.107" width="43.989" height="148.841" style="fill: rgb(255, 255, 255); stroke: rgba(255, 255, 255, 0.99);" transform="matrix(0.9999819993972779, 0.006045999936759473, -0.00593300024047494, 0.9999819993972779, -792.3438720703125, -645.2194213867189)"/>
  <rect x="958.527" y="678.744" width="44.409" height="152.094" style="fill-rule: nonzero; fill: rgb(255, 255, 255); stroke: rgba(255, 255, 255, 0.99); transform-origin: 980.731px 754.791px;" transform="matrix(0.00593300024, -0.999981999397, 0.999981999397, 0.006045999471, -866.453390679046, -654.255061802269)"/>
  <rect x="964.996" y="835.156" width="44.709" height="187.144" style="fill-rule: nonzero; fill: rgb(255, 255, 255); stroke: rgba(255, 255, 255, 0.99); transform-origin: 987.349px 928.731px;" transform="matrix(0.00593300024, -0.999981999397, 0.999981999397, 0.006045999471, -621.86830956086, -853.776604742201)"/>
  <rect x="-1267.868" y="-1017.836" width="44.398" height="324.555" style="fill-rule: nonzero; fill: rgb(255, 255, 255); stroke: rgba(255, 255, 255, 0.99); transform-origin: -1245.67px -855.549px;" transform="matrix(-0.999981999397, -0.006045999471, 0.00593300024, -0.999981999397, 1682.308342980293, 1070.85081993135)"/>
  <rect x="-1000.514" y="-1012.412" width="44.397" height="130.977" style="fill-rule: nonzero; fill: rgb(255, 255, 255); stroke: rgba(255, 255, 255, 0.99); transform-origin: -978.315px -946.921px;" transform="matrix(-0.999981999397, -0.006045999471, 0.00593300024, -0.999981999397, 1149.724109706171, 1256.230366370565)"/>
  <rect x="-1070.116" y="-634.316" width="44.505" height="79.741" style="fill-rule: nonzero; fill: rgb(255, 255, 255); stroke: rgba(255, 255, 255, 0.99); transform-origin: -1047.88px -594.443px;" transform="matrix(-0.00593300024, 0.999981999397, -0.999981999397, -0.006045999471, 1201.569592203647, 910.591380118932)"/>
  <rect x="-1070.226" y="-638.587" width="44.508" height="80.277" style="fill-rule: nonzero; fill: rgb(255, 255, 255); stroke: rgba(255, 255, 255, 0.99); transform-origin: -1047.99px -598.452px;" transform="matrix(-0.00593300024, 0.999981999397, -0.999981999397, -0.006045999471, 1466.056622777025, 917.528218367603)"/>
  <path d="M 1310.033 521.527 L 1327.875 566.234 L 1310.033 566.234 L 1310.033 521.527 Z" style="fill: rgb(255, 255, 255); stroke: rgba(255, 255, 255, 0.99); transform-origin: 247.419px 165.005px;" transform="matrix(0.00593300024, -0.999981999397, 0.999981999397, 0.006045999471, -460.94770684398, 1139.083143810602)" bx:shape="triangle 1310.033 521.527 17.842 44.707 0 0 1@27ad8bdb"/>
  <path d="M 3302.006 226.708 L 3346.978 246.141 L 3302.006 246.141 L 3302.006 226.708 Z" style="fill: rgb(255, 255, 255); stroke: rgba(255, 255, 255, 0.99); transform-origin: 247.419px 165.005px;" transform="matrix(-0.00593300024, 0.999981999397, 0.999981999397, 0.006045999471, -38.455568587556, -3167.995618309852)" bx:shape="triangle 3302.006 226.708 44.972 19.433 0 0 1@e7e3720f"/>
  <path style="fill: rgb(255, 255, 255); stroke: rgba(255, 255, 255, 0.99);" transform="matrix(1.4012869596481325, 0.008472000248730183, -0.008333000354468822, 1.404592037200928, -156.7899932861328, -152.08155822753906)" d="M 440.728 374.357 A 57.089 57.089 0 1 1 383.639 317.268 L 383.639 348.667 A 25.69 25.69 0 1 0 409.329 374.357 Z" bx:shape="pie 383.639 374.357 25.69 57.089 90 360 1@58632e3e"/>
  <path style="fill: rgb(255, 255, 255); stroke: rgba(255, 255, 255, 0.99);" transform="matrix(1.4012869596481325, 0.008474000729620457, -0.008333000354468822, 1.404592037200928, -421.4456787109375, -155.0120391845703)" d="M 440.728 374.357 A 57.089 57.089 0 1 1 383.639 317.268 L 383.639 348.667 A 25.69 25.69 0 1 0 409.329 374.357 Z" bx:shape="pie 383.639 374.357 25.69 57.089 90 360 1@58632e3e"/>
</svg>
